<?xml version="1.0" encoding="UTF-8" standalone="no"?>
<!-- Created with Inkscape (http://www.inkscape.org/) -->
<svg xmlns:rdf="http://www.w3.org/1999/02/22-rdf-syntax-ns#" xmlns="http://www.w3.org/2000/svg" height="256" width="1020" version="1.1" xmlns:cc="http://creativecommons.org/ns#" xmlns:dc="http://purl.org/dc/elements/1.1/">
<metadata>
<rdf:RDF>
<cc:Work rdf:about="">
<dc:format>image/svg+xml</dc:format>
<dc:type rdf:resource="http://purl.org/dc/dcmitype/StillImage"/>
<dc:title/>
</cc:Work>
</rdf:RDF>
</metadata>
<g transform="translate(0,-796.36218)">
<g transform="matrix(1.6460977,0,0,1.6460984,-8.1132563,652.37875)">
<g style="letter-spacing:0px;word-spacing:0px;" font-weight="normal" font-size="68.34341431px" font-style="normal" font-stretch="normal" line-height="125%" font-variant="normal" font-family="Reenie Beanie" fill="#8085e8">
<path d="m39.2,174c-0.00003,2.05-0.365,3.66-1.09,4.82-0.729,1.16-1.8,2.24-3.21,3.25-0.364,0.228-0.865,0.502-1.5,0.821-0.638,0.319-1.34,0.615-2.12,0.888-0.775,0.273-1.59,0.501-2.46,0.683-0.866,0.182-1.66,0.273-2.39,0.273-2.05,0-3.6-0.216-4.65-0.649-1.05-0.432-1.57-0.945-1.57-1.54-0.000011-0.638,0.182-1.16,0.546-1.57s0.683-0.638,0.957-0.684l0.753,0.546c0.227,0.228,0.545,0.468,0.955,0.719s1.07,0.376,1.98,0.376c0.865,0.00001,1.91-0.148,3.14-0.444s2.4-0.752,3.52-1.37c1.12-0.615,2.07-1.38,2.87-2.29,0.797-0.911,1.2-1.96,1.2-3.14-0.000027-1.05-0.786-2.01-2.36-2.9-1.57-0.888-4.04-1.49-7.42-1.81-1.73-0.136-3.44-0.352-5.13-0.649-1.69-0.296-3.2-0.706-4.54-1.23s-2.43-1.18-3.25-1.98c-0.82-0.797-1.23-1.79-1.23-2.97-0.000004-1.14,0.319-2.23,0.957-3.28s1.42-2.02,2.36-2.9c0.934-0.888,1.9-1.67,2.9-2.36,1-0.683,1.85-1.25,2.53-1.71,0.546-0.318,1.31-0.74,2.29-1.26,0.98-0.524,2.03-1.03,3.14-1.5,1.12-0.478,2.23-0.888,3.35-1.23,1.12-0.341,2.06-0.512,2.84-0.512,0.912,0.00004,1.53,0.251,1.85,0.752,0.318,0.501,0.478,1.21,0.478,2.12-0.000026,0.775-0.0911,1.59-0.273,2.46-0.182,0.866-0.387,1.71-0.615,2.53s-0.444,1.54-0.649,2.15c-0.204,0.615-0.353,1.01-0.444,1.2-0.182,0.41-0.387,0.683-0.615,0.82-0.228,0.136-0.387,0.204-0.478,0.204-0.182,0.00002-0.273-0.114-0.273-0.342-0.000022-0.136,0.034-0.398,0.102-0.785,0.0681-0.387,0.159-0.854,0.273-1.4,0.114-0.547,0.205-1.14,0.273-1.78,0.0681-0.637,0.102-1.28,0.102-1.91-0.000023-1-0.0456-1.73-0.137-2.19-0.0911-0.455-0.456-0.683-1.09-0.683-0.637,0.00004-1.5,0.171-2.6,0.512-1.09,0.341-2.21,0.763-3.35,1.26-1.23,0.546-2.42,1.25-3.59,2.12-1.16,0.866-2.2,1.75-3.11,2.67-0.911,0.911-1.65,1.79-2.22,2.63-0.569,0.843-0.854,1.51-0.854,2.02-0.000006,0.546,0.376,1.06,1.13,1.54,0.752,0.478,1.71,0.9,2.87,1.26,1.16,0.365,2.45,0.684,3.86,0.957s2.8,0.478,4.17,0.614c1.14,0.136,2.39,0.318,3.76,0.546s2.64,0.593,3.83,1.09c1.18,0.501,2.19,1.17,3.01,2.02,0.82,0.843,1.23,1.93,1.23,3.25z"/>
<path d="m61.9,177c0.0459,0.0918,0.0688,0.229,0.0688,0.411-0.000022,0.274-0.205,0.684-0.615,1.23-0.136,0.182-0.432,0.478-0.888,0.888s-1.07,0.82-1.85,1.23c-0.774,0.41-1.72,0.774-2.84,1.09-1.12,0.318-2.43,0.478-3.93,0.478-1.05,0-2.07-0.239-3.07-0.717s-1.89-1.18-2.67-2.12c-0.774-0.934-1.41-2.1-1.91-3.49-0.501-1.39-0.752-3.02-0.752-4.89-0.000003-1.78,0.228-3.44,0.683-4.99s1.04-2.92,1.74-4.1c0.706-1.18,1.49-2.12,2.36-2.8,0.866-0.683,1.71-1.03,2.53-1.03,0.729,0.00003,1.47,0.148,2.22,0.444,0.752,0.296,1.44,0.672,2.05,1.13,0.615,0.456,1.1,0.969,1.47,1.54,0.365,0.569,0.547,1.15,0.547,1.74-0.000017,0.683-0.308,1.39-0.923,2.12-0.615,0.729-1.36,1.4-2.22,2.02-0.866,0.615-1.73,1.12-2.6,1.5-0.866,0.387-1.55,0.581-2.05,0.581-0.273,0.00001-0.511-0.125-0.716-0.376s-0.308-0.559-0.308-0.923c-0.000008-0.638,0.285-1.14,0.854-1.5,0.569-0.364,1.2-0.695,1.88-0.991,0.683-0.296,1.31-0.649,1.88-1.06,0.569-0.41,0.854-0.98,0.854-1.71-0.000013-0.0918-0.114-0.32-0.342-0.684s-0.843-0.546-1.85-0.546c-0.455,0.00002-0.978,0.262-1.57,0.786s-1.16,1.23-1.71,2.12c-0.547,0.889-1,1.94-1.37,3.14-0.364,1.21-0.546,2.52-0.546,3.93-0.000006,1.18,0.217,2.26,0.65,3.21,0.433,0.957,0.991,1.77,1.67,2.43,0.683,0.661,1.48,1.17,2.39,1.54,0.911,0.364,1.85,0.546,2.8,0.546,0.683,0,1.42-0.148,2.22-0.444,0.797-0.296,1.55-0.615,2.26-0.957,0.706-0.342,1.32-0.661,1.84-0.957,0.523-0.296,0.854-0.444,0.992-0.444,0.136,0.00001,0.284,0.0685,0.443,0.205,0.159,0.137,0.262,0.274,0.308,0.41z"/>
<path d="m99.3,170c-0.000036,0.82-0.376,1.83-1.13,3.04-0.752,1.21-1.77,2.38-3.04,3.52-1.28,1.14-2.76,2.11-4.44,2.9-1.69,0.797-3.44,1.2-5.26,1.2-0.82,0.00001-1.69-0.137-2.6-0.41-0.911-0.273-1.8-0.672-2.67-1.2-0.866-0.524-1.64-1.16-2.32-1.91-0.683-0.752-1.19-1.61-1.5-2.56-0.273,0.273-0.602,0.728-0.99,1.37-0.387,0.638-0.809,1.29-1.26,1.95-0.456,0.66-0.957,1.23-1.5,1.71-0.546,0.478-1.12,0.717-1.71,0.717-0.592,0.00001-1.08-0.308-1.47-0.923-0.387-0.615-0.695-1.3-0.923-2.05-0.228-0.752-0.388-1.47-0.479-2.15-0.0911-0.683-0.137-1.07-0.137-1.16-0.000003-0.548,0.16-1.58,0.479-3.11s0.797-3.11,1.43-4.75c0.638-1.64,1.45-3.1,2.43-4.37,0.98-1.28,2.13-1.91,3.45-1.91,0.501,0.00003,0.831,0.216,0.991,0.649,0.16,0.432,0.24,0.854,0.24,1.26v2.05c0.227,0.182,0.465,0.308,0.716,0.376,0.251,0.0688,0.479,0.16,0.684,0.273s0.365,0.284,0.479,0.512,0.171,0.592,0.171,1.09c-0.000015,0.32-0.023,0.605-0.0688,0.855-0.0459,0.25-0.0688,0.489-0.0688,0.717-0.000015,1.18,0.0911,2.35,0.273,3.49s0.547,2.15,1.09,3.04c0.547,0.888,1.3,1.62,2.26,2.19,0.957,0.57,2.23,0.855,3.83,0.855,2.01,0.00001,3.7-0.422,5.09-1.26,1.39-0.843,2.55-1.78,3.49-2.8,0.934-1.02,1.67-1.96,2.22-2.8,0.546-0.843,1-1.26,1.37-1.26,0.592,0.00002,0.888,0.296,0.888,0.888zm-24-3.01c-0.000011-0.182-0.0456-0.353-0.137-0.512-0.0911-0.159-0.137-0.307-0.137-0.443-0.000011-0.182,0.0455-0.342,0.137-0.479,0.0911-0.137,0.137-0.319,0.137-0.547-0.000011-0.136-0.0456-0.238-0.137-0.307-0.0911-0.0681-0.137-0.148-0.137-0.24-0.41,0.0918-0.832,0.479-1.26,1.16-0.433,0.683-0.843,1.48-1.23,2.39-0.387,0.911-0.695,1.83-0.922,2.77-0.227,0.934-0.341,1.7-0.341,2.29-0.000008,0.318,0.0911,0.842,0.273,1.57,0.182,0.729,0.387,1.21,0.615,1.44,0.774-1.59,1.49-3.14,2.15-4.65,0.66-1.5,0.991-2.98,0.991-4.44z"/>
<path d="m116,163c-0.00001,0.318-0.137,0.58-0.41,0.785s-0.592,0.376-0.957,0.513-0.73,0.24-1.09,0.308c-0.364,0.0682-0.66,0.102-0.888,0.102-0.683,0.00002-1.14-0.0455-1.37-0.137-0.228-0.091-0.41-0.137-0.546-0.137-1.14,0.00002-2.05,0.0911-2.73,0.273-0.683,0.182-1.22,0.478-1.61,0.888-0.387,0.41-0.638,0.923-0.752,1.54-0.114,0.615-0.171,1.36-0.171,2.22-0.00001,1.46,0.057,2.62,0.171,3.49,0.114,0.866,0.228,1.57,0.341,2.12,0.113,0.546,0.227,0.968,0.341,1.26,0.114,0.296,0.171,0.581,0.171,0.855-0.00001,0.364-0.194,0.752-0.581,1.16-0.387,0.41-0.74,0.615-1.06,0.615-0.546,0-1.04-0.49-1.47-1.47-0.433-0.98-0.798-2.14-1.09-3.49-0.296-1.34-0.535-2.68-0.717-4s-0.273-2.32-0.273-3.01c0-0.776,0.0681-1.52,0.204-2.22,0.136-0.706,0.318-1.32,0.546-1.84,0.228-0.524,0.479-0.946,0.752-1.26,0.273-0.319,0.547-0.479,0.821-0.479,0.228,0.00003,0.41,0.08,0.546,0.24s0.25,0.342,0.341,0.547c0.0911,0.205,0.194,0.387,0.308,0.546s0.262,0.239,0.444,0.239c0.41,0.00003,1.07-0.205,1.98-0.615,0.911-0.41,2.03-0.615,3.35-0.615,1.23,0.00002,2.15,0.0341,2.77,0.102,0.615,0.0682,1.22,0.216,1.81,0.444,0.136,0.0459,0.307,0.148,0.512,0.308,0.205,0.159,0.308,0.399,0.308,0.719z"/>
<path d="m141,172c-0.00002,0.456-0.0685,0.923-0.205,1.4-0.137,0.478-0.274,0.877-0.41,1.2-0.0918,0.138-0.513,0.605-1.26,1.4-0.752,0.797-1.69,1.63-2.8,2.49-1.12,0.866-2.37,1.65-3.76,2.36-1.39,0.706-2.72,1.06-4,1.06-0.774,0-1.56-0.137-2.36-0.411-0.797-0.274-1.54-0.718-2.22-1.33-0.683-0.615-1.24-1.38-1.67-2.29-0.432-0.911-0.649-2.03-0.649-3.35,0-2.19,0.364-4.17,1.09-5.95,0.729-1.78,1.46-3.19,2.19-4.24,0.32-0.501,0.741-1.01,1.26-1.54,0.524-0.524,1.04-1,1.54-1.43,0.501-0.432,0.968-0.786,1.4-1.06,0.433-0.274,0.741-0.411,0.923-0.411,0.41,0.00002,0.786,0.114,1.13,0.342,0.341,0.228,0.512,0.456,0.512,0.684-0.00001,0.364-0.102,0.672-0.307,0.922-0.204,0.25-0.489,0.524-0.854,0.82s-0.798,0.684-1.3,1.16c-0.501,0.479-1.03,1.11-1.57,1.88-1.09,1.5-1.9,3.04-2.43,4.61-0.524,1.57-0.786,2.95-0.786,4.13s0.444,2.13,1.33,2.84c0.888,0.706,1.81,1.06,2.77,1.06,1.73,0,3.27-0.387,4.61-1.16,1.34-0.774,2.5-1.64,3.45-2.6,0.957-0.957,1.73-1.82,2.32-2.6,0.592-0.774,1.02-1.16,1.3-1.16,0.502,0.00001,0.753,0.387,0.753,1.16z"/>
<path d="m169,171c0.228,0.228,0.342,0.365,0.342,0.411-0.00003,0.0904-0.125,0.363-0.375,0.819-0.25,0.455-0.581,0.934-0.991,1.43-0.41,0.501-0.854,0.946-1.33,1.33-0.478,0.387-0.946,0.581-1.4,0.581-0.957,0.00001-1.73-0.194-2.32-0.581-0.592-0.387-1.08-0.877-1.47-1.47-0.387-0.592-0.683-1.24-0.888-1.95-0.205-0.706-0.376-1.38-0.512-2.02-0.0918-0.32-0.183-0.48-0.273-0.48-0.138,0.00002-0.411,0.49-0.821,1.47s-0.853,2.05-1.33,3.21c-0.478,1.16-0.934,2.23-1.37,3.21-0.433,0.98-0.718,1.47-0.854,1.47-0.82,0.00001-1.52-0.353-2.08-1.06-0.569-0.706-1.03-1.53-1.37-2.46-0.342-0.934-0.604-1.89-0.786-2.87s-0.296-1.74-0.342-2.29c-0.136-1.23-0.432-3.28-0.887-6.15s-0.843-6.36-1.16-10.5c-0.0904-0.865-0.193-1.65-0.307-2.36-0.114-0.706-0.24-1.49-0.376-2.36-0.137-0.866-0.251-1.85-0.342-2.94-0.0911-1.09-0.137-2.44-0.137-4.03,0-0.0903,0.0229-0.386,0.0688-0.887s0.114-1.05,0.205-1.64c0.0911-0.592,0.239-1.12,0.444-1.57,0.205-0.456,0.444-0.684,0.716-0.684,0.32,0.00005,0.616,0.194,0.89,0.581,0.273,0.387,0.512,0.832,0.717,1.33,0.205,0.501,0.353,0.98,0.444,1.44,0.0911,0.456,0.137,0.775,0.137,0.957-0.00001,0.683-0.0455,1.32-0.137,1.91-0.0911,0.592-0.137,1.14-0.137,1.64,0,0.683,0.057,1.55,0.171,2.6s0.262,2.12,0.444,3.21,0.341,2.15,0.478,3.18c0.136,1.03,0.25,1.86,0.342,2.5-0.00001,0.0445,0.0455,0.363,0.137,0.955,0.0911,0.592,0.194,1.33,0.308,2.22,0.114,0.889,0.228,1.85,0.342,2.87,0.114,1.03,0.239,2.03,0.375,3.01s0.261,1.85,0.375,2.6c0.114,0.752,0.194,1.29,0.24,1.61-0.00001,0.136,0.0341,0.33,0.102,0.58,0.0681,0.25,0.136,0.535,0.204,0.854,0.0681,0.319,0.148,0.615,0.24,0.888,0.0918,0.273,0.206,0.479,0.342,0.616,0.273-0.546,0.625-1.39,1.06-2.53,0.433-1.14,0.889-2.3,1.37-3.49,0.478-1.18,0.934-2.22,1.37-3.11,0.433-0.888,0.809-1.33,1.13-1.33,0.364,0.00002,0.66,0.0685,0.888,0.205,0.228,0.137,0.524,0.251,0.888,0.341,0.456,0.182,0.684,0.421,0.684,0.717-0.00002,0.296,0.0452,0.649,0.136,1.06,0.0918,0.548,0.24,1.27,0.445,2.15,0.205,0.889,0.444,1.75,0.717,2.6,0.273,0.843,0.592,1.56,0.956,2.15,0.364,0.592,0.729,0.889,1.09,0.888,0.182,0.00001,0.433-0.239,0.752-0.717s0.752-0.74,1.3-0.786c0.0917,0.00001,0.252,0.057,0.48,0.171s0.455,0.262,0.682,0.444z"/>
<path d="m224,135c0.0459,0.0918,0.0688,0.252,0.0688,0.48-0.00003,0.228-0.00003,0.478,0,0.751-0.00003,0.32-0.114,0.48-0.342,0.48-0.0918,0.00005-0.206-0.0229-0.342-0.0688-0.136-0.0458-0.25-0.0917-0.342-0.138-0.82-0.364-1.81-0.831-2.97-1.4s-2.47-0.854-3.93-0.854c-1.64,0.00005-2.96,0.615-3.96,1.84-1,1.23-1.77,2.65-2.29,4.27-0.524,1.62-0.866,3.2-1.03,4.75-0.159,1.55-0.239,2.67-0.239,3.35-0.00001,0.501,0.0796,1.29,0.239,2.36s0.376,2.18,0.65,3.32,0.593,2.18,0.957,3.11c0.364,0.934,0.729,1.51,1.09,1.74,0.274,0.00002,0.764-0.0229,1.47-0.0688s1.29-0.0688,1.74-0.0688c0.774,0.00003,1.5,0.0685,2.19,0.205,0.683,0.137,1.39,0.205,2.12,0.205,0.182,0.00003,0.455,0.00003,0.82,0,0.364,0.00003,0.74,0.023,1.13,0.0688,0.387,0.0459,0.717,0.126,0.991,0.239,0.273,0.113,0.41,0.261,0.41,0.443-0.00002,0.228-0.16,0.433-0.479,0.615s-0.683,0.33-1.09,0.444c-0.41,0.114-0.819,0.194-1.23,0.24-0.41,0.0459-0.729,0.0688-0.957,0.0688-0.228,0.00002-0.524-0.0114-0.888-0.0344-0.364-0.0229-0.763-0.0573-1.2-0.103-0.433-0.0459-0.843-0.0799-1.23-0.102-0.387-0.0222-0.717-0.0333-0.99-0.0334-0.73,0.00002-1.17,0.0796-1.33,0.239-0.159,0.159-0.239,0.467-0.239,0.923-0.00001,0.683,0.308,1.6,0.923,2.77,0.615,1.16,1.29,2.4,2.02,3.73,0.729,1.32,1.4,2.69,2.02,4.1,0.615,1.41,0.923,2.71,0.923,3.9-0.00002,0.227-0.057,0.648-0.171,1.26-0.114,0.615-0.274,1.24-0.479,1.88-0.205,0.638-0.49,1.21-0.854,1.71-0.364,0.501-0.774,0.752-1.23,0.752-0.364,0.00001-0.695-0.103-0.991-0.308s-0.444-0.559-0.444-1.06c-0.00001-0.729,0.194-1.41,0.581-2.05,0.387-0.638,0.581-1.32,0.581-2.05-0.00001-0.364-0.171-0.979-0.512-1.84-0.341-0.866-0.763-1.83-1.26-2.9-0.501-1.07-1.05-2.2-1.64-3.38-0.592-1.18-1.15-2.27-1.67-3.25-0.524-0.98-0.968-1.79-1.33-2.43-0.364-0.638-0.569-0.98-0.615-1.03-0.911,0.32-1.84,0.639-2.8,0.958-0.957,0.319-1.82,0.797-2.6,1.43-0.318,0.32-0.615,0.48-0.888,0.48-0.455,0.00002-0.876-0.182-1.26-0.547-0.387-0.365-0.581-0.775-0.581-1.23,0-0.502,0.148-0.901,0.444-1.2,0.296-0.296,0.581-0.512,0.853-0.649,0.41-0.228,1.05-0.479,1.91-0.752,0.866-0.273,1.73-0.501,2.6-0.683,0.318-0.0917,0.615-0.172,0.888-0.24,0.274-0.0681,0.411-0.216,0.411-0.444-0.138-0.455-0.332-1.06-0.582-1.81-0.25-0.752-0.501-1.65-0.752-2.7s-0.468-2.22-0.65-3.52-0.273-2.7-0.273-4.2c-0.00001-1.64,0.194-3.37,0.581-5.19s1-3.5,1.85-5.02c0.843-1.53,1.9-2.78,3.18-3.76s2.8-1.47,4.58-1.47c0.819,0.00005,1.73,0.08,2.73,0.24s1.93,0.388,2.77,0.684c0.843,0.296,1.55,0.661,2.12,1.09,0.569,0.432,0.854,0.922,0.854,1.47z"/>
<path d="m240,169c-0.00002,1-0.137,1.96-0.41,2.87-0.273,0.911-0.638,1.71-1.09,2.39-0.455,0.683-0.991,1.22-1.61,1.61-0.615,0.387-1.29,0.581-2.02,0.581-1.28,0-2.28-0.365-3.01-1.09-0.729-0.729-1.29-1.57-1.67-2.53-0.388-0.957-0.639-1.92-0.752-2.9s-0.17-1.72-0.17-2.22c0-0.82,0.125-1.74,0.375-2.77s0.592-1.97,1.03-2.84c0.433-0.866,0.923-1.59,1.47-2.19,0.546-0.592,1.12-0.888,1.71-0.888,0.136,0.00003,0.352,0.0456,0.649,0.137,0.296,0.0911,0.604,0.228,0.923,0.41s0.604,0.41,0.855,0.683,0.422,0.593,0.512,0.958c0.502,0.0445,1,0.226,1.5,0.545,0.501,0.319,0.774,0.57,0.82,0.752,0.364,1.18,0.603,2.37,0.717,3.55s0.171,2.16,0.171,2.94zm-3.07-1.23c-0.00001-0.683-0.0685-1.4-0.205-2.15-0.137-0.752-0.411-1.52-0.821-2.29-0.0904,0.0459-0.204,0.0688-0.342,0.0688-0.182,0.00002-0.33-0.0226-0.444-0.0678s-0.216-0.0678-0.307-0.0678c-0.546,0.00002-0.979,0.148-1.3,0.444-0.319,0.296-0.559,0.683-0.719,1.16-0.16,0.478-0.262,0.991-0.308,1.54-0.0452,0.546-0.0678,1.07-0.0678,1.57,0,0.501,0.0226,1.06,0.0678,1.67,0.0452,0.615,0.148,1.2,0.308,1.74,0.16,0.546,0.376,1.01,0.65,1.4,0.273,0.387,0.638,0.581,1.09,0.581,0.455,0.00001,0.842-0.239,1.16-0.717,0.319-0.478,0.57-1.04,0.752-1.67,0.182-0.638,0.308-1.26,0.376-1.88,0.0688-0.615,0.103-1.06,0.103-1.33z"/>
<path d="m263,163c-0.00002,0.318-0.137,0.58-0.41,0.785s-0.592,0.376-0.957,0.513-0.73,0.24-1.09,0.308c-0.364,0.0682-0.66,0.102-0.888,0.102-0.683,0.00002-1.14-0.0455-1.37-0.137-0.228-0.091-0.41-0.137-0.546-0.137-1.14,0.00002-2.05,0.0911-2.73,0.273-0.683,0.182-1.22,0.478-1.61,0.888-0.387,0.41-0.638,0.923-0.752,1.54-0.114,0.615-0.171,1.36-0.171,2.22,0,1.46,0.057,2.62,0.171,3.49,0.114,0.866,0.228,1.57,0.341,2.12,0.113,0.546,0.227,0.968,0.341,1.26,0.114,0.296,0.171,0.581,0.171,0.855-0.00001,0.364-0.194,0.752-0.581,1.16-0.387,0.41-0.74,0.615-1.06,0.615-0.546,0-1.04-0.49-1.47-1.47-0.433-0.98-0.798-2.14-1.09-3.49-0.296-1.34-0.535-2.68-0.717-4s-0.273-2.32-0.273-3.01c-0.00001-0.776,0.0681-1.52,0.204-2.22,0.136-0.706,0.318-1.32,0.546-1.84,0.228-0.524,0.479-0.946,0.752-1.26,0.273-0.319,0.547-0.479,0.821-0.479,0.228,0.00003,0.41,0.08,0.546,0.24s0.25,0.342,0.341,0.547c0.0911,0.205,0.194,0.387,0.308,0.546s0.262,0.239,0.444,0.239c0.41,0.00003,1.07-0.205,1.98-0.615,0.911-0.41,2.03-0.615,3.35-0.615,1.23,0.00002,2.15,0.0341,2.77,0.102,0.615,0.0682,1.22,0.216,1.81,0.444,0.136,0.0459,0.307,0.148,0.512,0.308,0.205,0.159,0.308,0.399,0.308,0.719z"/>
<path d="m309,169c-0.00001,1-0.137,1.96-0.41,2.87-0.273,0.911-0.638,1.71-1.09,2.39-0.455,0.683-0.991,1.22-1.61,1.61-0.615,0.387-1.29,0.581-2.02,0.581-1.28,0-2.28-0.365-3.01-1.09-0.729-0.729-1.29-1.57-1.67-2.53-0.388-0.957-0.639-1.92-0.752-2.9s-0.17-1.72-0.17-2.22c-0.00001-0.82,0.125-1.74,0.375-2.77s0.592-1.97,1.03-2.84c0.433-0.866,0.923-1.59,1.47-2.19,0.546-0.592,1.12-0.888,1.71-0.888,0.136,0.00003,0.352,0.0456,0.649,0.137,0.296,0.0911,0.604,0.228,0.923,0.41s0.604,0.41,0.855,0.683,0.422,0.593,0.512,0.958c0.502,0.0445,1,0.226,1.5,0.545,0.501,0.319,0.774,0.57,0.82,0.752,0.364,1.18,0.603,2.37,0.717,3.55s0.171,2.16,0.171,2.94zm-3.07-1.23c-0.00001-0.683-0.0685-1.4-0.205-2.15-0.137-0.752-0.411-1.52-0.821-2.29-0.0904,0.0459-0.204,0.0688-0.342,0.0688-0.182,0.00002-0.33-0.0226-0.444-0.0678s-0.216-0.0678-0.307-0.0678c-0.546,0.00002-0.979,0.148-1.3,0.444-0.319,0.296-0.559,0.683-0.719,1.16-0.16,0.478-0.262,0.991-0.308,1.54-0.0452,0.546-0.0678,1.07-0.0678,1.57-0.00001,0.501,0.0226,1.06,0.0678,1.67,0.0452,0.615,0.148,1.2,0.308,1.74,0.16,0.546,0.376,1.01,0.65,1.4,0.273,0.387,0.638,0.581,1.09,0.581,0.455,0.00001,0.842-0.239,1.16-0.717,0.319-0.478,0.57-1.04,0.752-1.67,0.182-0.638,0.308-1.26,0.376-1.88,0.0688-0.615,0.103-1.06,0.103-1.33z"/>
<path d="m338,164c-0.00002,1.18-0.33,2.32-0.991,3.42-0.66,1.09-1.47,2.11-2.43,3.04-0.957,0.934-2,1.8-3.14,2.6-1.14,0.797-2.19,1.49-3.14,2.08-0.911,0.638-1.66,1.16-2.25,1.57-0.592,0.41-0.889,0.729-0.888,0.957-0.00001,0.592,0.0681,1.42,0.204,2.49s0.307,2.23,0.512,3.49c0.205,1.25,0.41,2.54,0.615,3.86s0.354,2.53,0.445,3.62c-0.00002,0.0459,0.034,0.251,0.102,0.615,0.0681,0.364,0.159,0.774,0.273,1.23,0.114,0.455,0.205,0.877,0.273,1.26,0.0681,0.387,0.102,0.627,0.102,0.719-0.00001,0.318-0.0111,0.671-0.0334,1.06-0.0223,0.387-0.0904,0.752-0.204,1.09-0.114,0.342-0.285,0.627-0.513,0.855s-0.524,0.342-0.888,0.342c-0.502-0.00001-0.867-0.217-1.09-0.65-0.227-0.433-0.341-0.855-0.341-1.26-0.00001-0.0904,0.0111-0.181,0.0334-0.273,0.0222-0.0918,0.0333-0.206,0.0334-0.342-0.00002-0.501-0.182-1.84-0.546-4.03s-0.774-4.8-1.23-7.83c-0.455-3.03-0.865-6.29-1.23-9.77-0.364-3.49-0.546-6.78-0.546-9.88-0.00001-0.228,0.0226-0.49,0.0678-0.786s0.0678-0.558,0.0678-0.786c-0.456,0.0459-1.13,0.251-2.02,0.616-0.888,0.365-1.77,0.809-2.63,1.33-0.866,0.524-1.63,1.07-2.29,1.64-0.66,0.569-0.991,1.08-0.991,1.54h-0.478c-0.138,0.00002-0.309-0.0911-0.514-0.273s-0.387-0.387-0.546-0.615-0.307-0.456-0.444-0.683-0.205-0.387-0.205-0.479c0.00001-0.957,0.57-1.86,1.71-2.7,1.14-0.843,2.56-1.6,4.27-2.26s3.59-1.18,5.64-1.57c2.05-0.387,3.99-0.581,5.81-0.581,1.78,0.00003,3.27,0.205,4.48,0.615s2.18,0.9,2.9,1.47c0.729,0.569,1.25,1.15,1.57,1.74,0.319,0.592,0.479,1.09,0.479,1.5zm-3.35-0.204c-0.00002-0.456-0.57-0.923-1.71-1.4-1.14-0.478-2.48-0.717-4.03-0.717-1.37,0.00002-2.37,0.0456-3.01,0.137-0.638,0.0911-1.07,0.183-1.3,0.274-0.0918,0.729-0.16,1.59-0.205,2.6-0.0452,1-0.0678,2.03-0.0678,3.07-0.00001,1.09,0.0341,2.15,0.102,3.18,0.0681,1.02,0.147,1.88,0.238,2.56,0.638-0.41,1.52-0.968,2.63-1.67,1.12-0.706,2.22-1.5,3.32-2.39,1.09-0.888,2.04-1.82,2.84-2.8,0.797-0.98,1.2-1.92,1.2-2.84z"/>
<path d="m360,153c-0.592,0.683-1.44,1.35-2.53,2.02-1.09,0.661-2.19,1.26-3.28,1.81-1.09,0.546-2.05,1.01-2.87,1.4-0.82,0.387-1.23,0.649-1.23,0.785-0.00001,0.138,0.0911,0.548,0.273,1.23,0.182,0.683,0.398,1.49,0.649,2.43,0.25,0.934,0.512,1.9,0.786,2.9s0.502,1.89,0.684,2.67c0.0904,0.456,0.204,1.05,0.341,1.78,0.137,0.729,0.262,1.46,0.376,2.19,0.114,0.729,0.217,1.38,0.308,1.95,0.0911,0.569,0.137,0.877,0.137,0.923-0.00001,0.683-0.114,1.39-0.342,2.12-0.228,0.729-0.592,1.09-1.09,1.09-0.274,0-0.525-0.114-0.753-0.342s-0.433-0.49-0.615-0.786-0.319-0.581-0.41-0.854c-0.0911-0.273-0.137-0.478-0.137-0.614-0.00001-0.0918,0.0115-0.229,0.0344-0.411s0.0344-0.387,0.0344-0.615c-0.00002-0.865-0.137-2.12-0.411-3.76-0.0904-0.501-0.272-1.28-0.545-2.32-0.273-1.05-0.547-2.12-0.821-3.21-0.318-1.28-0.683-2.67-1.09-4.17-0.182-0.638-0.296-0.957-0.342-0.957-0.32,0.00002-0.855,0.194-1.61,0.581-0.752,0.387-1.61,0.866-2.56,1.44-0.957,0.57-1.96,1.19-3.01,1.85s-2.03,1.28-2.94,1.84c-0.911,0.569-1.7,1.05-2.36,1.43-0.66,0.387-1.06,0.581-1.2,0.581-0.592,0.00002-1.07-0.205-1.43-0.615-0.364-0.41-0.546-0.866-0.546-1.37,0-0.274,0.376-0.673,1.13-1.2,0.752-0.523,1.69-1.1,2.8-1.74,1.12-0.638,2.32-1.3,3.62-1.98,1.3-0.683,2.51-1.3,3.62-1.84,1.12-0.546,2.05-1,2.8-1.37,0.752-0.365,1.13-0.547,1.13-0.547-0.41-2.1-0.752-3.96-1.03-5.6-0.228-1.41-0.445-2.71-0.65-3.9-0.205-1.18-0.308-1.82-0.308-1.91,0-0.592,0.125-1.04,0.376-1.33,0.251-0.296,0.536-0.444,0.854-0.444,0.502,0.00004,0.821,0.342,0.957,1.03,0.501,2.46,0.967,4.65,1.4,6.56s0.855,3.46,1.26,4.65c0.41-0.0904,1.12-0.352,2.12-0.785s2.05-0.9,3.14-1.4c1.09-0.501,2.08-0.945,2.97-1.33,0.888-0.387,1.4-0.581,1.54-0.581,0.273,0.00003,0.443,0.0914,0.512,0.274,0.0688,0.183,0.148,0.342,0.239,0.479z"/>
<path d="m368,153c-0.00001,0.0904-0.16,0.272-0.479,0.545s-0.695,0.558-1.13,0.854c-0.432,0.296-0.877,0.558-1.33,0.786-0.456,0.228-0.82,0.342-1.09,0.342-0.182,0.00003-0.421-0.0114-0.717-0.0344-0.296-0.0229-0.592-0.103-0.888-0.239s-0.558-0.33-0.786-0.581-0.342-0.582-0.342-0.992c0-0.637,0.228-1.24,0.683-1.81s1.05-0.855,1.78-0.855c0.136,0.00004,0.444,0.057,0.922,0.171s0.968,0.262,1.47,0.444c0.501,0.182,0.946,0.387,1.33,0.615,0.387,0.228,0.581,0.479,0.581,0.753zm2.25,25.6c-0.00001,0.318-0.239,0.592-0.717,0.82s-0.832,0.342-1.06,0.342c-0.455,0.00001-0.865-0.296-1.23-0.888s-0.684-1.28-0.957-2.05c-0.273-0.774-0.501-1.51-0.683-2.22-0.182-0.706-0.318-1.2-0.409-1.47-0.138-0.456-0.32-1-0.547-1.64-0.227-0.638-0.444-1.25-0.649-1.85-0.205-0.592-0.376-1.12-0.513-1.57-0.137-0.455-0.205-0.706-0.205-0.752-0.00001-0.638,0.125-1.23,0.375-1.78,0.25-0.546,0.558-0.82,0.924-0.82,0.41,0.00002,0.843,0.319,1.3,0.957,0.455,0.638,0.899,1.45,1.33,2.43,0.432,0.98,0.831,2.05,1.2,3.21,0.365,1.16,0.684,2.25,0.957,3.28,0.273,1.02,0.489,1.91,0.649,2.67,0.159,0.752,0.239,1.2,0.239,1.33z"/>
<path d="m386,169c-0.00001,1-0.137,1.96-0.41,2.87-0.273,0.911-0.638,1.71-1.09,2.39-0.455,0.683-0.991,1.22-1.61,1.61-0.615,0.387-1.29,0.581-2.02,0.581-1.28,0-2.28-0.365-3.01-1.09-0.729-0.729-1.29-1.57-1.67-2.53-0.388-0.957-0.639-1.92-0.752-2.9s-0.17-1.72-0.17-2.22c-0.00001-0.82,0.125-1.74,0.375-2.77s0.592-1.97,1.03-2.84c0.433-0.866,0.923-1.59,1.47-2.19,0.546-0.592,1.12-0.888,1.71-0.888,0.136,0.00003,0.352,0.0456,0.649,0.137,0.296,0.0911,0.604,0.228,0.923,0.41s0.604,0.41,0.855,0.683,0.422,0.593,0.512,0.958c0.502,0.0445,1,0.226,1.5,0.545,0.501,0.319,0.774,0.57,0.82,0.752,0.364,1.18,0.603,2.37,0.717,3.55s0.171,2.16,0.171,2.94zm-3.07-1.23c-0.00001-0.683-0.0685-1.4-0.205-2.15-0.137-0.752-0.411-1.52-0.821-2.29-0.0904,0.0459-0.204,0.0688-0.342,0.0688-0.182,0.00002-0.33-0.0226-0.444-0.0678s-0.216-0.0678-0.307-0.0678c-0.546,0.00002-0.979,0.148-1.3,0.444-0.319,0.296-0.559,0.683-0.719,1.16-0.16,0.478-0.262,0.991-0.308,1.54-0.0452,0.546-0.0678,1.07-0.0678,1.57-0.00001,0.501,0.0226,1.06,0.0678,1.67,0.0452,0.615,0.148,1.2,0.308,1.74,0.16,0.546,0.376,1.01,0.65,1.4,0.273,0.387,0.638,0.581,1.09,0.581,0.455,0.00001,0.842-0.239,1.16-0.717,0.319-0.478,0.57-1.04,0.752-1.67,0.182-0.638,0.308-1.26,0.376-1.88,0.0688-0.615,0.103-1.06,0.103-1.33z"/>
<path d="m414,176c-0.00003,0.273-0.0911,0.545-0.273,0.819-0.182,0.273-0.398,0.524-0.649,0.752-0.25,0.228-0.524,0.422-0.82,0.581s-0.558,0.239-0.786,0.239c-0.774,0-1.77-0.171-2.97-0.512-1.21-0.341-2.18-0.876-2.9-1.6-0.774-0.774-1.46-1.7-2.05-2.77-0.592-1.07-1.25-2.65-1.98-4.75-0.501,2.01-1.08,3.99-1.74,5.95s-1.72,3.76-3.18,5.4c-0.0904,0.0904-0.227,0.136-0.411,0.136-0.318,0-0.66-0.16-1.02-0.479-0.364-0.319-0.546-0.638-0.546-0.956-0.00001-0.318-0.0344-1.06-0.103-2.22-0.0688-1.16-0.149-2.46-0.24-3.9-0.0911-1.43-0.171-2.89-0.239-4.37-0.0681-1.48-0.102-2.7-0.102-3.66-0.00001-0.456,0.0229-1.06,0.0688-1.81,0.0459-0.752,0.182-1.4,0.409-1.95,0.0459-0.0917,0.217-0.274,0.513-0.547s0.626-0.41,0.991-0.41c0.32,0.00002,0.502,0.205,0.547,0.615,0.0452,0.41,0.0678,0.866,0.0678,1.37v10.8c0,0.228,0.0344,0.547,0.103,0.956,0.0688,0.41,0.171,0.705,0.308,0.887,0.501-1.09,0.967-2.38,1.4-3.86s0.855-2.89,1.26-4.24c0.41-1.34,0.82-2.48,1.23-3.42,0.41-0.934,0.82-1.4,1.23-1.4,0.456,0.00003,0.821,0.0911,1.09,0.273,0.273,0.182,0.501,0.547,0.683,1.09,0.228,1.32,0.411,2.49,0.547,3.52,0.137,1.02,0.308,1.95,0.513,2.77s0.501,1.58,0.888,2.29c0.387,0.706,0.922,1.36,1.6,1.95,0.638,0.592,1.36,1.03,2.15,1.3,0.797,0.273,1.49,0.41,2.08,0.41,0.274,0.00001,0.57-0.057,0.888-0.171s0.546-0.171,0.684-0.171c0.182,0.00001,0.353,0.16,0.512,0.479s0.239,0.525,0.239,0.616z"/>
<path d="m433,175c-0.00002,0.774-0.262,1.45-0.786,2.02-0.524,0.569-1.19,1.05-1.98,1.43-0.797,0.387-1.67,0.695-2.63,0.923-0.957,0.228-1.87,0.399-2.73,0.512-0.866,0.113-1.63,0.181-2.29,0.204-0.661,0.023-1.08,0.0344-1.26,0.0344-1,0.00001-1.78-0.16-2.32-0.479-0.546-0.319-0.82-0.888-0.82-1.71,0-0.274,0.0226-0.513,0.0678-0.719,0.0452-0.205,0.228-0.308,0.547-0.308,0.136,0.00001,0.364,0.0341,0.683,0.102,0.319,0.0681,0.57,0.102,0.752,0.102,0.182,0.00001,0.763-0.0341,1.74-0.102,0.98-0.0681,2.03-0.193,3.14-0.375,1.12-0.182,2.12-0.444,3.01-0.786,0.888-0.342,1.33-0.786,1.33-1.33-0.00001-0.0904-0.467-0.375-1.4-0.853-0.934-0.478-2.34-1.29-4.2-2.43-1.46-0.911-2.48-1.83-3.08-2.77-0.592-0.934-0.888-2.2-0.888-3.79,0-1,0.217-1.82,0.65-2.46,0.433-0.638,1.03-1.14,1.78-1.5,0.752-0.364,1.62-0.626,2.6-0.785s2.02-0.239,3.11-0.239c0.0918,0.00003,0.377,0.0456,0.855,0.137,0.478,0.0911,0.991,0.239,1.54,0.444,0.547,0.205,1.04,0.456,1.47,0.752,0.432,0.296,0.649,0.626,0.649,0.991-0.00002,0.0904-0.0796,0.227-0.239,0.409s-0.421,0.524-0.785,1.03c-0.138-0.0459-0.377-0.114-0.719-0.205-0.341-0.091-0.729-0.194-1.16-0.308-0.433-0.114-0.877-0.205-1.33-0.273-0.455-0.0681-0.82-0.102-1.09-0.102-1.18,0.00002-2.14,0.216-2.87,0.649-0.729,0.432-1.09,1.26-1.09,2.49-0.00001,0.592,0.239,1.14,0.717,1.64,0.478,0.501,1.08,0.968,1.81,1.4,0.729,0.433,1.51,0.866,2.36,1.3,0.843,0.432,1.63,0.899,2.36,1.4,0.729,0.501,1.33,1.04,1.81,1.61,0.479,0.569,0.718,1.22,0.719,1.95z"/>
<path d="m489,171c0.228,0.228,0.342,0.365,0.342,0.411-0.00002,0.0904-0.125,0.363-0.375,0.819-0.25,0.455-0.581,0.934-0.991,1.43-0.41,0.501-0.854,0.946-1.33,1.33-0.478,0.387-0.946,0.581-1.4,0.581-0.957,0.00001-1.73-0.194-2.32-0.581-0.592-0.387-1.08-0.877-1.47-1.47-0.387-0.592-0.683-1.24-0.888-1.95-0.205-0.706-0.376-1.38-0.512-2.02-0.0918-0.32-0.183-0.48-0.273-0.48-0.138,0.00002-0.411,0.49-0.821,1.47s-0.853,2.05-1.33,3.21c-0.478,1.16-0.934,2.23-1.37,3.21-0.433,0.98-0.718,1.47-0.854,1.47-0.82,0.00001-1.52-0.353-2.08-1.06-0.569-0.706-1.03-1.53-1.37-2.46-0.342-0.934-0.604-1.89-0.786-2.87s-0.296-1.74-0.342-2.29c-0.136-1.23-0.432-3.28-0.887-6.15s-0.843-6.36-1.16-10.5c-0.0904-0.865-0.193-1.65-0.307-2.36-0.114-0.706-0.24-1.49-0.376-2.36-0.137-0.866-0.251-1.85-0.342-2.94-0.0911-1.09-0.137-2.44-0.137-4.03,0-0.0903,0.0229-0.386,0.0688-0.887s0.114-1.05,0.205-1.64c0.0911-0.592,0.239-1.12,0.444-1.57,0.205-0.456,0.444-0.684,0.716-0.684,0.32,0.00005,0.616,0.194,0.89,0.581,0.273,0.387,0.512,0.832,0.717,1.33,0.205,0.501,0.353,0.98,0.444,1.44,0.0911,0.456,0.137,0.775,0.137,0.957-0.00001,0.683-0.0455,1.32-0.137,1.91-0.0911,0.592-0.137,1.14-0.137,1.64-0.00001,0.683,0.057,1.55,0.171,2.6s0.262,2.12,0.444,3.21,0.341,2.15,0.478,3.18c0.136,1.03,0.25,1.86,0.342,2.5-0.00001,0.0445,0.0455,0.363,0.137,0.955,0.0911,0.592,0.194,1.33,0.308,2.22,0.114,0.889,0.228,1.85,0.342,2.87,0.114,1.03,0.239,2.03,0.375,3.01s0.261,1.85,0.375,2.6c0.114,0.752,0.194,1.29,0.24,1.61-0.00001,0.136,0.034,0.33,0.102,0.58,0.0681,0.25,0.136,0.535,0.204,0.854,0.0681,0.319,0.148,0.615,0.24,0.888,0.0917,0.273,0.206,0.479,0.342,0.616,0.273-0.546,0.625-1.39,1.06-2.53,0.433-1.14,0.889-2.3,1.37-3.49,0.478-1.18,0.934-2.22,1.37-3.11,0.433-0.888,0.809-1.33,1.13-1.33,0.364,0.00002,0.66,0.0685,0.888,0.205,0.228,0.137,0.524,0.251,0.888,0.341,0.456,0.182,0.684,0.421,0.684,0.717-0.00002,0.296,0.0452,0.649,0.136,1.06,0.0918,0.548,0.24,1.27,0.445,2.15,0.205,0.889,0.444,1.75,0.717,2.6,0.273,0.843,0.592,1.56,0.956,2.15,0.364,0.592,0.729,0.889,1.09,0.888,0.182,0.00001,0.433-0.239,0.752-0.717s0.752-0.74,1.3-0.786c0.0918,0.00001,0.252,0.057,0.48,0.171s0.455,0.262,0.682,0.444z"/>
<path d="m512,177c0.0459,0.0918,0.0688,0.229,0.0688,0.411-0.00002,0.274-0.205,0.684-0.615,1.23-0.136,0.182-0.432,0.478-0.888,0.888s-1.07,0.82-1.85,1.23c-0.774,0.41-1.72,0.774-2.84,1.09-1.12,0.318-2.43,0.478-3.93,0.478-1.05,0-2.07-0.239-3.07-0.717s-1.89-1.18-2.67-2.12c-0.774-0.934-1.41-2.1-1.91-3.49-0.501-1.39-0.752-3.02-0.752-4.89,0-1.78,0.228-3.44,0.683-4.99s1.04-2.92,1.74-4.1c0.706-1.18,1.49-2.12,2.36-2.8,0.866-0.683,1.71-1.03,2.53-1.03,0.729,0.00003,1.47,0.148,2.22,0.444,0.752,0.296,1.44,0.672,2.05,1.13,0.615,0.456,1.1,0.969,1.47,1.54,0.365,0.569,0.547,1.15,0.547,1.74-0.00001,0.683-0.308,1.39-0.923,2.12-0.615,0.729-1.36,1.4-2.22,2.02-0.866,0.615-1.73,1.12-2.6,1.5-0.866,0.387-1.55,0.581-2.05,0.581-0.273,0.00001-0.511-0.125-0.716-0.376s-0.308-0.559-0.308-0.923c-0.00001-0.638,0.285-1.14,0.854-1.5,0.569-0.364,1.2-0.695,1.88-0.991,0.683-0.296,1.31-0.649,1.88-1.06,0.569-0.41,0.854-0.98,0.854-1.71-0.00002-0.0918-0.114-0.32-0.342-0.684s-0.843-0.546-1.85-0.546c-0.455,0.00002-0.978,0.262-1.57,0.786s-1.16,1.23-1.71,2.12c-0.547,0.889-1,1.94-1.37,3.14-0.364,1.21-0.546,2.52-0.546,3.93,0,1.18,0.217,2.26,0.65,3.21,0.433,0.957,0.991,1.77,1.67,2.43,0.683,0.661,1.48,1.17,2.39,1.54,0.911,0.364,1.85,0.546,2.8,0.546,0.683,0,1.42-0.148,2.22-0.444,0.797-0.296,1.55-0.615,2.26-0.957,0.706-0.342,1.32-0.661,1.84-0.957,0.523-0.296,0.854-0.444,0.992-0.444,0.136,0.00001,0.284,0.0685,0.443,0.205,0.159,0.137,0.262,0.274,0.308,0.41z"/>
<path d="m533,163c-0.00002,0.318-0.137,0.58-0.41,0.785s-0.592,0.376-0.957,0.513-0.73,0.24-1.09,0.308c-0.364,0.0682-0.66,0.102-0.888,0.102-0.683,0.00002-1.14-0.0455-1.37-0.137-0.228-0.091-0.41-0.137-0.546-0.137-1.14,0.00002-2.05,0.0911-2.73,0.273-0.683,0.182-1.22,0.478-1.61,0.888-0.387,0.41-0.638,0.923-0.752,1.54-0.114,0.615-0.171,1.36-0.171,2.22-0.00001,1.46,0.057,2.62,0.171,3.49,0.114,0.866,0.228,1.57,0.341,2.12,0.113,0.546,0.227,0.968,0.341,1.26,0.114,0.296,0.171,0.581,0.171,0.855-0.00001,0.364-0.194,0.752-0.581,1.16-0.387,0.41-0.74,0.615-1.06,0.615-0.546,0-1.04-0.49-1.47-1.47-0.433-0.98-0.798-2.14-1.09-3.49-0.296-1.34-0.535-2.68-0.717-4s-0.273-2.32-0.273-3.01c0-0.776,0.0681-1.52,0.204-2.22,0.136-0.706,0.318-1.32,0.546-1.84,0.228-0.524,0.479-0.946,0.752-1.26,0.273-0.319,0.547-0.479,0.821-0.479,0.228,0.00003,0.41,0.08,0.546,0.24s0.25,0.342,0.341,0.547c0.0911,0.205,0.194,0.387,0.308,0.546s0.262,0.239,0.444,0.239c0.41,0.00003,1.07-0.205,1.98-0.615,0.911-0.41,2.03-0.615,3.35-0.615,1.23,0.00002,2.15,0.0341,2.77,0.102,0.615,0.0682,1.22,0.216,1.81,0.444,0.136,0.0459,0.307,0.148,0.512,0.308,0.205,0.159,0.308,0.399,0.308,0.719z"/>
<path d="m558,177c0.0459,0.0918,0.0688,0.229,0.0688,0.411-0.00002,0.274-0.205,0.684-0.615,1.23-0.136,0.182-0.432,0.478-0.888,0.888s-1.07,0.82-1.85,1.23c-0.774,0.41-1.72,0.774-2.84,1.09-1.12,0.318-2.43,0.478-3.93,0.478-1.05,0-2.07-0.239-3.07-0.717s-1.89-1.18-2.67-2.12c-0.774-0.934-1.41-2.1-1.91-3.49-0.501-1.39-0.752-3.02-0.752-4.89,0-1.78,0.228-3.44,0.683-4.99s1.04-2.92,1.74-4.1c0.706-1.18,1.49-2.12,2.36-2.8,0.866-0.683,1.71-1.03,2.53-1.03,0.729,0.00003,1.47,0.148,2.22,0.444,0.752,0.296,1.44,0.672,2.05,1.13,0.615,0.456,1.1,0.969,1.47,1.54,0.365,0.569,0.547,1.15,0.547,1.74-0.00001,0.683-0.308,1.39-0.923,2.12-0.615,0.729-1.36,1.4-2.22,2.02-0.866,0.615-1.73,1.12-2.6,1.5-0.866,0.387-1.55,0.581-2.05,0.581-0.273,0.00001-0.511-0.125-0.716-0.376s-0.308-0.559-0.308-0.923c0-0.638,0.285-1.14,0.854-1.5,0.569-0.364,1.2-0.695,1.88-0.991,0.683-0.296,1.31-0.649,1.88-1.06,0.569-0.41,0.854-0.98,0.854-1.71-0.00001-0.0918-0.114-0.32-0.342-0.684s-0.843-0.546-1.85-0.546c-0.455,0.00002-0.978,0.262-1.57,0.786s-1.16,1.23-1.71,2.12c-0.547,0.889-1,1.94-1.37,3.14-0.364,1.21-0.546,2.52-0.546,3.93,0,1.18,0.217,2.26,0.65,3.21,0.433,0.957,0.991,1.77,1.67,2.43,0.683,0.661,1.48,1.17,2.39,1.54,0.911,0.364,1.85,0.546,2.8,0.546,0.683,0,1.42-0.148,2.22-0.444,0.797-0.296,1.55-0.615,2.26-0.957,0.706-0.342,1.32-0.661,1.84-0.957,0.523-0.296,0.854-0.444,0.992-0.444,0.136,0.00001,0.284,0.0685,0.443,0.205,0.159,0.137,0.262,0.274,0.308,0.41z"/>
</g>
<g stroke-linejoin="miter" transform="translate(77.31638,-1.3284405)" stroke="#8085e8" stroke-linecap="butt" stroke-dasharray="none" stroke-miterlimit="4" fill="none">
<path d="m786,141c75.8,1.01,67.7-26.3,62.6-68.7-6-42.6-6-42.6-6-42.6" transform="matrix(0.60749736,0,0,0.6074971,4.9287817,87.469516)" stroke-width="4"/>
<path d="m498,126c12.9-8.59,19.6-22.1,19.6-22.1s0.614,3.07,12.9,9.2c12.3,6.14,10.4,5.52,10.4,5.52" stroke-width="2.42998885999999990"/>
</g>
</g>
</g>
</svg>
